<svg width="20" height="20" viewBox="0 0 20 20" fill="none"
  xmlns="http://www.w3.org/2000/svg">
  <path d="M11.544 8.45599C10.7249 7.63723 9.61414 7.17728 8.45599 7.17728C7.29784 7.17728 6.1871 7.63723 5.36799 8.45599L2.27899 11.544C1.45987 12.3631 0.999695 13.4741 0.999695 14.6325C0.999695 15.7909 1.45987 16.9019 2.27899 17.721C3.09811 18.5401 4.20908 19.0003 5.36749 19.0003C6.52591 19.0003 7.63687 18.5401 8.45599 17.721L9.99999 16.177" stroke="#292524" stroke-width="2" stroke-linecap="round" stroke-linejoin="round"/>
  <path d="M8.45599 11.544C9.2751 12.3628 10.3858 12.8227 11.544 12.8227C12.7021 12.8227 13.8129 12.3628 14.632 11.544L17.721 8.45599C18.5401 7.63687 19.0003 6.52591 19.0003 5.36749C19.0003 4.20908 18.5401 3.09811 17.721 2.27899C16.9019 1.45987 15.7909 0.999695 14.6325 0.999695C13.4741 0.999695 12.3631 1.45987 11.544 2.27899L9.99999 3.82299" stroke="#292524" stroke-width="2" stroke-linecap="round" stroke-linejoin="round"/>
</svg>
