<svg width="25" height="24" viewBox="0 0 25 24" fill="none"
  xmlns="http://www.w3.org/2000/svg">
  <path d="M5.20557 0.00599957C2.62036 0.00599957 0.504517 2.12179 0.504517 4.70705V19.2952C0.504517 21.8804 2.62031 23.9955 5.20557 23.9955H19.7938C22.379 23.9955 24.4941 21.8805 24.4941 19.2952V4.70705C24.4941 2.12184 22.379 0.00599957 19.7938 0.00599957H5.20557ZM6.38796 3.96475C7.62752 3.96475 8.39103 4.7785 8.4146 5.84815C8.4146 6.89419 7.62747 7.73081 6.36398 7.73081H6.34073C5.12477 7.73081 4.33884 6.89424 4.33884 5.84815C4.33884 4.77852 5.14855 3.96475 6.38794 3.96475H6.38796ZM17.0699 8.96419C19.4538 8.96419 21.2409 10.5223 21.2409 13.8707V20.1214H17.618V14.2897C17.618 12.8243 17.0937 11.8245 15.7826 11.8245C14.7817 11.8245 14.1851 12.4984 13.9231 13.1494C13.8274 13.3823 13.8039 13.7075 13.8039 14.0333V20.1214H10.181C10.181 20.1214 10.2286 10.2427 10.181 9.21984H13.8047V10.7636C14.2861 10.0208 15.1473 8.96417 17.0699 8.96417V8.96419ZM4.55253 9.22063H8.17541V20.1215H4.55253V9.22063V9.22063Z"/>
</svg>
