<svg width="24" height="20" viewBox="0 0 24 20" fill="currentColor"
  xmlns="http://www.w3.org/2000/svg">
  <path d="M23.143 2.937C22.308 3.307 21.411 3.557 20.468 3.67C21.441 3.08779 22.169 2.17147 22.516 1.092C21.6019 1.63499 20.6014 2.0172 19.558 2.222C18.8564 1.47287 17.9271 0.976327 16.9143 0.809475C15.9016 0.642623 14.8621 0.814792 13.9572 1.29925C13.0524 1.78371 12.3328 2.55336 11.9102 3.4887C11.4875 4.42405 11.3855 5.47275 11.62 6.472C9.7677 6.379 7.95564 5.89755 6.30144 5.05891C4.64723 4.22026 3.18785 3.04316 2.01801 1.604C1.61801 2.294 1.38801 3.094 1.38801 3.946C1.38757 4.713 1.57644 5.46824 1.93789 6.14473C2.29934 6.82122 2.82217 7.39804 3.46001 7.824C2.72029 7.80046 1.99688 7.60058 1.35001 7.241V7.301C1.34994 8.37674 1.72204 9.41938 2.40319 10.252C3.08434 11.0846 4.03258 11.6559 5.08701 11.869C4.4008 12.0547 3.68135 12.0821 2.98301 11.949C3.28051 12.8746 3.86001 13.684 4.64038 14.2639C5.42075 14.8438 6.36293 15.1652 7.33501 15.183C5.68485 16.4784 3.6469 17.1811 1.54901 17.178C1.17739 17.1781 0.806088 17.1564 0.437012 17.113C2.56649 18.4822 5.04535 19.2088 7.57701 19.206C16.147 19.206 20.832 12.108 20.832 5.952C20.832 5.752 20.827 5.55 20.818 5.35C21.7293 4.69097 22.5159 3.8749 23.141 2.94L23.143 2.937V2.937Z" fill="currentColor"/>
</svg>
